<svg xmlns="http://www.w3.org/2000/svg" viewBox="0 0 48.034 53.856"><title>iconAsset 89</title><g data-name="Layer 2"><path d="M24.017 6.04a.915.915 0 0 0 .915-.915V.915a.915.915 0 0 0-1.83 0v4.21a.915.915 0 0 0 .915.915zM39.705 7.034l-2.977 2.977a.915.915 0 0 0 1.295 1.295L41 8.329a.915.915 0 0 0-1.295-1.295zM47.119 23.102h-4.21a.915.915 0 1 0 0 1.83h4.21a.915.915 0 0 0 0-1.83zM38.023 36.728a.915.915 0 0 0-1.295 1.295L39.705 41A.915.915 0 1 0 41 39.705zM10.011 36.728l-2.977 2.977A.915.915 0 0 0 8.33 41l2.977-2.977a.915.915 0 0 0-1.295-1.295zM5.125 23.102H.915a.915.915 0 1 0 0 1.83h4.21a.915.915 0 1 0 0-1.83zM10.011 11.306a.915.915 0 0 0 1.295-1.295L8.329 7.034A.915.915 0 1 0 7.034 8.33zM23.817 9.745a14.053 14.053 0 0 0-8.506 25.082 6.632 6.632 0 0 1 2.477 4.456h-.063a.915.915 0 1 0 0 1.83h11.67v10.913H18.64v-6.772a.915.915 0 1 0-1.83 0v7.687a.915.915 0 0 0 .915.915h12.584a.915.915 0 0 0 .915-.915V40.198a.915.915 0 0 0-.915-.915h-.06a6.85 6.85 0 0 1 2.55-4.516 14.053 14.053 0 0 0-8.982-25.022zm7.837 23.594a8.662 8.662 0 0 0-3.248 5.944h-3.474v-7.836l1.99-1.99v1.567a.915.915 0 1 0 1.83 0v-3.776a.915.915 0 0 0-1.563-.647l-3.15 3.15-3.15-3.15a.915.915 0 0 0-1.563.647v3.776a.915.915 0 1 0 1.83 0v-1.566l1.946 1.945v7.88H19.63a8.457 8.457 0 0 0-3.185-5.892 12.223 12.223 0 1 1 15.21-.052z"/></g></svg>