<svg xmlns="http://www.w3.org/2000/svg" viewBox="0 0 44.376 44.376"><title>iconAsset 74</title><path d="M34.564 3.77a.915.915 0 0 0-1.023 1.518 20.412 20.412 0 0 1 5.192 5.039h-6.814a26.213 26.213 0 0 0-1.445-3.588C28.317 2.393 25.374 0 22.188 0a22.182 22.182 0 1 0 12.376 3.77zm5.424 28.286a.912.912 0 0 0-.344-.068h-7.135a40.175 40.175 0 0 0 1.143-8.885h8.872a20.215 20.215 0 0 1-2.536 8.953zm-35.6 0a20.216 20.216 0 0 1-2.536-8.953h8.872a40.175 40.175 0 0 0 1.143 8.885H4.732a.913.913 0 0 0-.345.068zm.108-19.93a.915.915 0 0 0 .236.031h7.194a40.002 40.002 0 0 0-1.203 9.116H1.852a20.219 20.219 0 0 1 2.644-9.148zM21.273 1.924v8.402h-6.888a23.868 23.868 0 0 1 1.156-2.774c1.603-3.23 3.61-5.189 5.732-5.628zm0 10.232v9.116h-8.719a37.746 37.746 0 0 1 1.264-9.116zm1.83 0h7.454a37.746 37.746 0 0 1 1.265 9.116h-8.72zM12.554 23.103h8.719v8.885h-7.517a37.937 37.937 0 0 1-1.202-8.885zm8.719 10.715v8.633c-2.122-.44-4.13-2.4-5.732-5.628a24.106 24.106 0 0 1-1.234-3.005zm1.83 8.633v-8.633h6.966a24.106 24.106 0 0 1-1.234 3.005c-1.603 3.229-3.61 5.188-5.732 5.628zm0-10.463v-8.885h8.719a37.937 37.937 0 0 1-1.202 8.885zm16.54-19.831a.916.916 0 0 0 .243-.033 20.329 20.329 0 0 1 2.637 9.149h-8.87a40.002 40.002 0 0 0-1.204-9.116zM28.836 7.553a23.868 23.868 0 0 1 1.155 2.774h-6.887V1.925c2.121.44 4.129 2.399 5.732 5.628zM16.758 2.567a16.335 16.335 0 0 0-2.856 4.172 26.213 26.213 0 0 0-1.445 3.588H5.653a20.426 20.426 0 0 1 11.105-7.76zM5.49 33.818h6.892a26.437 26.437 0 0 0 1.52 3.819 16.336 16.336 0 0 0 2.856 4.172 20.428 20.428 0 0 1-11.268-7.99zm22.127 7.991a16.336 16.336 0 0 0 2.857-4.172 26.425 26.425 0 0 0 1.52-3.819h6.892a20.43 20.43 0 0 1-11.269 7.991z" data-name="Layer 2"/></svg>