<svg xmlns="http://www.w3.org/2000/svg" viewBox="0 0 43.952 43.947"><title>iconAsset 75</title><path d="M43.675 1.069a.915.915 0 0 0-.792-.791 34.78 34.78 0 0 0-15.265 1.469 34.085 34.085 0 0 0-13.49 8.336 34.436 34.436 0 0 0-9.99 21.753.915.915 0 0 0 1.826.138A32.61 32.61 0 0 1 41.942 2.01a32.405 32.405 0 0 1-9.367 26.52 32.386 32.386 0 0 1-25.313 9.474l7.504-7.47h9.296a.915.915 0 1 0 0-1.83h-7.457l7.803-7.77h5.738a.915.915 0 0 0 0-1.83h-3.899l6.613-6.583a.915.915 0 0 0-1.292-1.297l-6.59 6.56v-3.846a.915.915 0 1 0-1.83 0v5.668L15.38 27.34v-7.32a.915.915 0 1 0-1.83 0v9.142L4.68 37.991a.92.92 0 0 0-.181.18L.27 42.384a.915.915 0 0 0 1.29 1.297l4.013-3.994a34.49 34.49 0 0 0 3.913.222 34.73 34.73 0 0 0 10.893-1.747 34.083 34.083 0 0 0 13.49-8.336 34.085 34.085 0 0 0 8.336-13.49 34.776 34.776 0 0 0 1.47-15.266z" data-name="Layer 2"/></svg>