<svg xmlns="http://www.w3.org/2000/svg" viewBox="0 0 38.928 46.248"><title>iconAsset 83</title><g data-name="Layer 2"><path d="M38.455 38.16a5.788 5.788 0 0 0-.514-.94l-4.005-7.256a.915.915 0 0 0-1.603 0l-4.005 7.256a5.793 5.793 0 1 0 10.127.94zm-5.32 6.257a3.96 3.96 0 0 1-3.271-6.2q.025-.037.046-.075l3.225-5.842 3.224 5.842c.015.026.03.05.047.075a3.963 3.963 0 0 1-3.271 6.2zM27.577 26.284a.915.915 0 0 0 .915.915h8.803a.915.915 0 0 0 .916-.915V17.33a8.188 8.188 0 0 0-8.179-8.179h-6.334a7.399 7.399 0 0 0-4.175-1.985V1.83h4.96a.915.915 0 1 0 0-1.83h-11.75a.915.915 0 0 0 0 1.83h4.96v5.336A7.399 7.399 0 0 0 13.52 9.15H1.83v-2.25a.915.915 0 0 0-1.83 0v15.115a.915.915 0 1 0 1.83 0V10.98H13.9a.915.915 0 0 0 .669-.29 5.527 5.527 0 0 1 8.08 0 .915.915 0 0 0 .667.29h6.716a6.356 6.356 0 0 1 6.348 6.349v8.039h-6.973v-6.5a.915.915 0 0 0-.915-.914h-5.175a.915.915 0 0 0-.669.29 5.527 5.527 0 0 1-8.08 0 .915.915 0 0 0-.668-.29H6.364a.915.915 0 0 0 0 1.83h7.155a7.356 7.356 0 0 0 10.179 0h3.879z"/></g></svg>