<svg xmlns="http://www.w3.org/2000/svg" viewBox="0 0 48.03409 53.8563">
  <title>iconAsset 89</title>
  <g id="Layer_2" data-name="Layer 2">
    <g>
      <path d="M24.01709,6.0404a.91512.91512,0,0,0,.9151-.9152V.9151a.91515.91515,0,0,0-1.8303,0V5.1252A.9152.9152,0,0,0,24.01709,6.0404Z"/>
      <path d="M39.70539,7.0344l-2.977,2.977a.91521.91521,0,0,0,1.2944,1.2942l2.977-2.977a.91521.91521,0,0,0-1.2944-1.2942Z"/>
      <path d="M47.119,23.1018H42.90889a.91515.91515,0,1,0,0,1.8303H47.119a.91515.91515,0,0,0,0-1.8303Z"/>
      <path d="M38.02279,36.7284a.91521.91521,0,0,0-1.2944,1.2942l2.977,2.977a.91524.91524,0,1,0,1.2944-1.2943Z"/>
      <path d="M10.01139,36.7284l-2.9769,2.9769a.91521.91521,0,0,0,1.2943,1.2943l2.9769-2.977a.91517.91517,0,0,0-1.2943-1.2942Z"/>
      <path d="M5.12529,23.1018H.91519a.91515.91515,0,1,0,0,1.8303h4.2101a.91515.91515,0,1,0,0-1.8303Z"/>
      <path d="M10.01139,11.3056a.91517.91517,0,0,0,1.2943-1.2942l-2.9769-2.977a.91517.91517,0,1,0-1.2943,1.2942Z"/>
      <path d="M23.81679,9.7447a14.0528,14.0528,0,0,0-8.506,25.0825,6.632,6.632,0,0,1,2.4775,4.4557h-.0634a.91515.91515,0,1,0,0,1.8303h11.6692V52.026H18.64V45.2538a.91516.91516,0,1,0-1.83031,0v7.6873a.91514.91514,0,0,0,.9152.9152h12.5844a.91514.91514,0,0,0,.9152-.9152V40.198a.91512.91512,0,0,0-.9152-.9151h-.0611a6.85,6.85,0,0,1,2.5507-4.5157,14.05278,14.05278,0,0,0-8.9821-25.0225Zm7.8376,23.5942a8.66207,8.66207,0,0,0-3.2485,5.944h-3.4737V31.4466l1.989-1.989v1.566a.91515.91515,0,1,0,1.8303,0V27.2482a.91515.91515,0,0,0-1.5623-.6471L24.039,29.7513l-3.15021-3.1502a.91518.91518,0,0,0-1.5623.6471v3.7754a.91515.91515,0,1,0,1.8303,0v-1.566l1.9451,1.9451v7.8802h-3.4722a8.4573,8.4573,0,0,0-3.1843-5.8919,12.22278,12.22278,0,1,1,15.209-.0521Z"/>
    </g>
  </g>
</svg>
