<svg xmlns="http://www.w3.org/2000/svg" viewBox="0 0 44.3756 44.3757">
  <title>iconAsset 74</title>
  <g id="Layer_2" data-name="Layer 2">
    <path d="M34.5636,3.7694a.91521.91521,0,0,0-1.0222,1.5184,20.41189,20.41189,0,0,1,5.1915,5.0389h-6.814A26.21328,26.21328,0,0,0,30.474,6.7389C28.317,2.3932,25.3742,0,22.1878,0A22.182,22.182,0,1,0,34.5636,3.7694Zm5.4247,28.2861a.912.912,0,0,0-.3446-.0677H32.5091a40.17548,40.17548,0,0,0,1.143-8.8848h8.8717A20.21523,20.21523,0,0,1,39.9883,32.0555Zm-35.6011,0A20.21645,20.21645,0,0,1,1.8518,23.103h8.8717a40.17548,40.17548,0,0,0,1.143,8.8848H4.7319A.91286.91286,0,0,0,4.3872,32.0555Zm.1091-19.9302a.91548.91548,0,0,0,.2356.0317h7.1942a40.00212,40.00212,0,0,0-1.2026,9.1157H1.8518A20.21883,20.21883,0,0,1,4.4963,12.1253ZM21.2726,1.9248v8.4019H14.3852a23.86752,23.86752,0,0,1,1.1558-2.774C17.1438,4.3238,19.1514,2.3643,21.2726,1.9248Zm0,10.2322v9.1157H12.554a37.746,37.746,0,0,1,1.2645-9.1157Zm1.8303,0h7.4542a37.746,37.746,0,0,1,1.2645,9.1157H23.1029ZM12.554,23.103h8.7186v8.8848h-7.517A37.93743,37.93743,0,0,1,12.554,23.103Zm8.7186,10.7152v8.6326c-2.1212-.4394-4.1288-2.399-5.7316-5.6278a24.10551,24.10551,0,0,1-1.2343-3.0048Zm1.8303,8.6326V33.8182h6.966a24.10551,24.10551,0,0,1-1.2343,3.0048C27.2318,40.0518,25.2242,42.0114,23.1029,42.4508Zm0-10.463V23.103h8.7187A37.93743,37.93743,0,0,1,30.62,31.9878ZM39.6437,12.157a.91554.91554,0,0,0,.2419-.0333,20.32863,20.32863,0,0,1,2.6369,9.149H33.6521a40.00212,40.00212,0,0,0-1.2026-9.1157ZM28.8346,7.5527a23.86752,23.86752,0,0,1,1.1558,2.774H23.1029V1.9248C25.2242,2.3643,27.2318,4.3238,28.8346,7.5527ZM16.7583,2.5667a16.33518,16.33518,0,0,0-2.8567,4.1722,26.21328,26.21328,0,0,0-1.4449,3.5878H5.6526A20.42566,20.42566,0,0,1,16.7583,2.5667ZM5.4895,33.8182h6.8928a26.43686,26.43686,0,0,0,1.5193,3.8186,16.33635,16.33635,0,0,0,2.8568,4.1722A20.42823,20.42823,0,0,1,5.4895,33.8182ZM27.6172,41.809a16.33635,16.33635,0,0,0,2.8568-4.1722,26.42525,26.42525,0,0,0,1.5192-3.8186h6.8929A20.42956,20.42956,0,0,1,27.6172,41.809Z"/>
  </g>
</svg>
