<svg xmlns="http://www.w3.org/2000/svg" viewBox="0 0 43.95225 43.94704">
  <title>iconAsset 75</title>
  <g id="Layer_2" data-name="Layer 2">
    <path d="M43.67465,1.069a.9154.9154,0,0,0-.7915-.7915,34.78014,34.78014,0,0,0-15.2654,1.4693,34.08526,34.08526,0,0,0-13.4901,8.3366,34.43632,34.43632,0,0,0-9.9888,21.753.91518.91518,0,0,0,1.8252.1374,32.61062,32.61062,0,0,1,35.9782-29.9639,32.405,32.405,0,0,1-9.3677,26.5203,32.38583,32.38583,0,0,1-25.3124,9.4742l7.5042-7.4708h9.2961a.91515.91515,0,1,0,0-1.8303h-7.4576l7.8035-7.7687h5.7373a.9152.9152,0,0,0,0-1.8304H26.247l6.6129-6.5834a.91518.91518,0,0,0-1.2914-1.2971l-6.5896,6.5603v-3.8465a.91515.91515,0,1,0-1.8303,0v5.6686l-7.7688,7.7342v-7.3196a.91515.91515,0,1,0-1.8303,0v9.1417L4.68135,37.991a.92029.92029,0,0,0-.1816.1808l-4.2303,4.2115a.91518.91518,0,0,0,1.2914,1.2971l4.0126-3.9948a34.49021,34.49021,0,0,0,3.9125.2224,34.73,34.73,0,0,0,10.8927-1.747,34.08321,34.08321,0,0,0,13.4901-8.3365,34.08492,34.08492,0,0,0,8.3366-13.4902A34.77645,34.77645,0,0,0,43.67465,1.069Z"/>
  </g>
</svg>
