<svg xmlns="http://www.w3.org/2000/svg" viewBox="0 0 38.928 46.2476">
  <title>iconAsset 83</title>
  <g id="Layer_2" data-name="Layer 2">
    <g>
      <path d="M38.4553,38.1601a5.78786,5.78786,0,0,0-.514-.9401l-4.0054-7.256a.9152.9152,0,0,0-1.6024-.0001L28.328,37.22a5.79274,5.79274,0,1,0,10.1273.9401Zm-5.3206,6.2572a3.96082,3.96082,0,0,1-3.2712-6.2004q.02505-.03645.0464-.0751L33.1347,32.3l3.2247,5.8418c.0143.0258.0298.051.0465.0753a3.96319,3.96319,0,0,1-3.2712,6.2002Z"/>
      <path d="M27.5769,26.2837a.91514.91514,0,0,0,.9152.9152h8.8033a.91514.91514,0,0,0,.9152-.9152V17.3298A8.18794,8.18794,0,0,0,30.032,9.1511H23.698a7.39861,7.39861,0,0,0-4.1745-1.9852V1.8303h4.9598a.91515.91515,0,1,0,0-1.8303h-11.75a.91515.91515,0,0,0,0,1.8303h4.9599V7.1659a7.39861,7.39861,0,0,0-4.1745,1.9852H1.8303V6.9018A.91515.91515,0,0,0,0,6.9018V22.0159a.91515.91515,0,1,0,1.8303,0V10.9814H13.9002a.91468.91468,0,0,0,.6684-.29,5.527,5.527,0,0,1,8.0795,0,.91468.91468,0,0,0,.6684.29H30.032a6.35559,6.35559,0,0,1,6.3483,6.3484v8.0388H29.4072V18.8697a.915.915,0,0,0-.9151-.9151H23.3165a.91485.91485,0,0,0-.6684.29,5.527,5.527,0,0,1-8.0795,0,.91485.91485,0,0,0-.6684-.29H6.364a.91515.91515,0,0,0,0,1.8303h7.1547a7.35613,7.35613,0,0,0,10.1793,0h3.8789Z"/>
    </g>
  </g>
</svg>
